<svg xmlns="http://www.w3.org/2000/svg" viewBox="0 0 32 32" width="78" height="78" style="fill: rgba(242, 239, 237, 1);"><path d="M15.822 28.445c6.972 0 12.623-5.651 12.623-12.623 0-6.971-5.651-12.622-12.623-12.622-6.971 0-12.622 5.651-12.622 12.622 0 6.972 5.651 12.623 12.622 12.623zM15.822 29.511c-7.559 0-13.689-6.13-13.689-13.69s6.129-13.689 13.689-13.689c7.561 0 13.69 6.129 13.69 13.689 0 7.561-6.129 13.69-13.69 13.69zM11.657 13.644l-0.767 0.741 4.558 4.719 4.723-4.693-0.752-0.756-3.955 3.931z"></path></svg>